<svg width="512" height="512" viewBox="0 0 512 512" fill="none" xmlns="http://www.w3.org/2000/svg">
<g clip-path="url(#clip0)">
<path d="M342.383 271.352C319.344 235.41 280.105 213.949 237.418 213.949C194.734 213.949 155.492 235.41 132.457 271.352L76.9414 357.957C67.7305 372.328 63.4805 388.926 64.6484 405.953C65.8164 422.984 72.2969 438.844 83.3867 451.824C94.4844 464.801 109.148 473.668 125.793 477.473C142.437 481.273 159.5 479.652 175.133 472.781L176.152 472.328C215.492 455.371 260.457 455.523 299.699 472.781C309.82 477.23 320.543 479.48 331.363 479.48C337.246 479.48 343.164 478.813 349.027 477.477C365.672 473.676 380.336 464.809 391.438 451.832C402.531 438.855 409.016 422.992 410.188 405.961C411.359 388.926 407.109 372.328 397.898 357.953L342.383 271.352ZM368.629 432.324C354.508 448.832 331.664 454.051 311.781 445.309C288.148 434.914 262.781 429.719 237.406 429.719C212.055 429.719 186.691 434.91 163.074 445.293L162.402 445.59C142.672 453.934 120.164 448.648 106.199 432.324C92.0937 415.812 90.4883 392.438 102.207 374.152L157.727 287.547C175.219 260.258 205.008 243.965 237.418 243.965C269.828 243.965 299.621 260.258 317.117 287.547L372.629 374.148C384.352 392.441 382.742 415.82 368.629 432.324Z" fill="url(#paint0_linear)"/>
<path d="M91.8945 271.238C108.41 264.895 120.957 251.586 127.227 233.762C133.187 216.801 132.699 197.652 125.844 179.84C118.984 162.039 106.508 147.508 90.7148 138.918C74.1172 129.898 55.8867 128.43 39.3984 134.785C6.22655 147.539 -8.9961 188.531 5.46874 226.184C17.0234 256.152 43.9726 275.07 71.2187 275.07C78.1758 275.07 85.1523 273.836 91.8945 271.238ZM33.4766 215.402C24.9531 193.215 32.4414 169.613 50.1797 162.793C53.3828 161.559 56.7695 160.945 60.2266 160.945C65.5625 160.945 71.0742 162.402 76.3789 165.289C85.918 170.473 93.5391 179.473 97.8359 190.625C102.129 201.785 102.512 213.566 98.9101 223.805C95.6094 233.187 89.293 240.086 81.1289 243.223L81.1133 243.23C63.3984 250.059 42.0273 237.57 33.4766 215.402Z" fill="url(#paint1_linear)"/>
<path d="M199.613 203.387C241.082 203.387 274.82 164.949 274.82 117.703C274.82 70.4453 241.082 32 199.613 32C158.148 32 124.414 70.4453 124.414 117.703C124.414 164.949 158.148 203.387 199.613 203.387ZM199.613 62.0117C224.531 62.0117 244.809 86.9961 244.809 117.703C244.809 148.398 224.531 173.375 199.613 173.375C174.695 173.375 154.426 148.398 154.426 117.703C154.426 86.9961 174.695 62.0117 199.613 62.0117Z" fill="url(#paint2_linear)"/>
<path d="M329.496 224.438H329.5C335.879 226.555 342.387 227.566 348.867 227.566C379.109 227.566 408.582 205.555 419.828 171.727C426.305 152.254 425.879 131.664 418.629 113.754C411.043 95.0078 396.984 81.3984 379.039 75.4297C361.094 69.4688 341.676 71.9531 324.375 82.4297C307.848 92.4414 295.184 108.676 288.719 128.148C275.066 169.227 293.359 212.422 329.496 224.438V224.438ZM317.199 137.613C321.422 124.898 329.492 114.422 339.926 108.102C349.578 102.254 360.109 100.766 369.574 103.91C379.035 107.059 386.574 114.551 390.809 125.012C395.383 136.316 395.578 149.543 391.348 162.258C382.914 187.633 359.414 202.75 338.965 195.957C318.531 189.16 308.766 162.988 317.199 137.613Z" fill="url(#paint3_linear)"/>
<path d="M487.875 214.437L487.863 214.426C459.266 193.301 416.496 202.457 392.516 234.848C368.559 267.254 372.305 310.82 400.859 331.961C411.273 339.676 423.578 343.363 436.172 343.363C458.121 343.363 480.957 332.16 496.219 311.559C520.176 279.152 516.434 235.586 487.875 214.437V214.437ZM472.098 293.703C457.937 312.816 433.996 319.156 418.719 307.84C403.453 296.539 402.523 271.797 416.645 252.695C426.031 240.016 439.742 232.961 452.379 232.961C458.77 232.961 464.887 234.766 470.027 238.566C485.281 249.879 486.207 274.613 472.098 293.703V293.703Z" fill="url(#paint4_linear)"/>
</g>
<defs>
<linearGradient id="paint0_linear" x1="237.419" y1="213.949" x2="237.419" y2="479.48" gradientUnits="userSpaceOnUse">
<stop stop-color="#FF7D05"/>
<stop offset="1" stop-color="#E7B400" stop-opacity="0.35"/>
</linearGradient>
<linearGradient id="paint1_linear" x1="65.6832" y1="130.895" x2="65.6832" y2="275.07" gradientUnits="userSpaceOnUse">
<stop stop-color="#FF7D05"/>
<stop offset="1" stop-color="#E7B400" stop-opacity="0.35"/>
</linearGradient>
<linearGradient id="paint2_linear" x1="199.617" y1="32" x2="199.617" y2="203.387" gradientUnits="userSpaceOnUse">
<stop stop-color="#FF7D05"/>
<stop offset="1" stop-color="#E7B400" stop-opacity="0.35"/>
</linearGradient>
<linearGradient id="paint3_linear" x1="354.294" y1="72.2539" x2="354.294" y2="227.566" gradientUnits="userSpaceOnUse">
<stop stop-color="#FF7D05"/>
<stop offset="1" stop-color="#E7B400" stop-opacity="0.35"/>
</linearGradient>
<linearGradient id="paint4_linear" x1="444.368" y1="203.054" x2="444.368" y2="343.363" gradientUnits="userSpaceOnUse">
<stop stop-color="#FF7D05"/>
<stop offset="1" stop-color="#E7B400" stop-opacity="0.35"/>
</linearGradient>
<clipPath id="clip0">
<rect width="512" height="512" fill="white"/>
</clipPath>
</defs>
</svg>
